<?xml version="1.0" standalone="no"?>
<svg xmlns="http://www.w3.org/2000/svg" viewBox="0 0 524.0749403341289 197.87494033412887" width="524.0749403341289" height="197.87494033412887"><rect fill="#3052ce" width="524.0749403341289" height="197.87494033412887" x="0" y="0"></rect><g fill="white" color="white" transform="translate(338.2 12) scale(1.7387495)"><svg width="100.0" height="100.0" x="0.0" y="0.0" viewBox="0 0 100 100"><path fill-rule="evenodd" clip-rule="evenodd" d="M77.3,81.354c-1.405,1.452-2.662,2.911-4.084,4.188  c-3.062,2.749-6.794,2.601-10.541,2.204c-0.93-0.1-1.857-0.276-2.776-0.461c-2.694-0.54-5.187,0.024-7.48,1.442  c-1.229,0.76-2.419,1.613-3.512,2.558c-3.558,3.078-7.58,3.682-11.975,2.361c-1.344-0.403-2.699-0.843-3.955-1.458  c-5.382-2.644-10.42-1.729-15.295,1.314c-0.466,0.29-0.922,0.597-1.687,1.095c-1.031-3.149-2.307-6.103-2.94-9.187  c-1.144-5.588-2.026-11.239-2.798-16.893c-1.116-8.17-1.748-16.387-1.348-24.643c0.394-8.136,1.549-16.133,4.841-23.679  c1.832-4.2,4.298-7.954,7.913-10.862c3.679-2.958,7.911-4.499,12.597-4.759c6.184-0.344,12.111,0.656,17.415,4.023  c6.715,4.262,10.263,10.635,11.797,18.282c1.279,6.372,1.038,12.829,1.121,19.267c0.066,5.039,0.183,10.071,1.263,15.025  c1.446,6.614,4.52,12.382,8.979,17.439C75.592,79.475,76.369,80.321,77.3,81.354z M31.708,38.845  c0.022,2.519,1.855,4.614,4.042,4.619c2.216,0.007,4.104-2.16,4.115-4.715c0.009-2.563-1.888-4.716-4.117-4.675  C33.521,34.117,31.687,36.281,31.708,38.845z M24.689,25.798c-2.368-0.014-4.243,1.817-4.261,4.161  c-0.019,2.312,1.883,4.253,4.191,4.279c2.294,0.026,4.243-1.901,4.258-4.21C28.894,27.671,27.051,25.811,24.689,25.798z   M47.732,34.871c2.354-0.019,4.219-1.905,4.189-4.238c-0.027-2.304-1.992-4.228-4.281-4.195c-2.323,0.032-4.182,1.945-4.165,4.287  C43.492,33.081,45.348,34.89,47.732,34.871z"></path></svg></g><path fill="white" fill-rule="nonzero" d="M21.56 1.60L21.56 3.88L12 3.88L12 28.96L9.56 28.96L9.56 3.88L0 3.88L0 1.60L21.56 1.60ZM44.32 1.60L44.32 3.88L34.76 3.88L34.76 28.96L32.32 28.96L32.32 3.88L22.76 3.88L22.76 1.60L44.32 1.60ZM57.72 1.20L57.72 1.20Q59.52 1.20 61 1.72Q62.48 2.24 63.54 3.20Q64.60 4.16 65.20 5.48Q65.80 6.80 65.80 8.40L65.80 8.40Q65.80 10.56 64.78 12.02Q63.76 13.48 61.96 14.28L61.96 14.28Q64.28 15.20 65.66 17.14Q67.04 19.08 67.04 21.52L67.04 21.52Q67.04 23.32 66.40 24.76Q65.76 26.20 64.56 27.24Q63.36 28.28 61.62 28.84Q59.88 29.40 57.72 29.40L57.72 29.40Q55.80 29.40 54.32 29.34Q52.84 29.28 51.80 29.20L51.80 29.20Q50.60 29.08 49.68 28.96L49.68 28.96L49.68 3.72Q48.40 3.52 47.26 3Q46.12 2.48 45.32 1.36L45.32 1.36L46.64 0Q47.48 0.80 48.64 1.20Q49.80 1.60 51.40 1.60L51.40 1.60Q52.32 1.60 52.96 1.54Q53.60 1.48 54.24 1.40Q54.88 1.32 55.66 1.26Q56.44 1.20 57.72 1.20ZM57.80 15.60L52.12 15.60L52.12 27Q53.28 27.08 54.72 27.14Q56.16 27.20 57.60 27.20L57.60 27.20Q60.96 27.20 62.82 25.68Q64.68 24.16 64.68 21.36L64.68 21.36Q64.68 20.16 64.18 19.12Q63.68 18.08 62.80 17.30Q61.92 16.52 60.68 16.08Q59.44 15.64 57.96 15.60L57.96 15.60L57.80 15.60ZM57.60 3.40L57.60 3.40Q56.32 3.40 55.56 3.46Q54.80 3.52 54.26 3.58Q53.72 3.64 53.24 3.72Q52.76 3.80 52.12 3.80L52.12 3.80L52.12 13.40L57.68 13.40Q60.20 13.40 61.80 12.10Q63.40 10.80 63.40 8.40L63.40 8.40Q63.40 6 61.82 4.70Q60.24 3.40 57.60 3.40Z" transform="translate(12 12) scale(4.643)"></path><path fill="white" fill-rule="nonzero" d="M15.12 13.68L15.12 15.96L2.44 15.96L2.44 28.96L0 28.96L0 1.60L17.92 1.60L17.92 3.88L2.44 3.88L2.44 13.68L15.12 13.68ZM47.60 0L48.92 1.36Q48 2.64 46.60 3.18Q45.20 3.72 43.76 3.80L43.76 3.80Q44.36 4.60 45.06 5.74Q45.76 6.88 46.36 8.32Q46.96 9.76 47.34 11.50Q47.72 13.24 47.72 15.28L47.72 15.28Q47.72 18.28 46.76 20.86Q45.80 23.44 44.02 25.32Q42.24 27.20 39.76 28.28Q37.28 29.36 34.24 29.36L34.24 29.36Q31.16 29.36 28.68 28.28Q26.20 27.20 24.42 25.30Q22.64 23.40 21.68 20.84Q20.72 18.28 20.72 15.28L20.72 15.28Q20.72 12.28 21.68 9.70Q22.64 7.12 24.42 5.24Q26.20 3.36 28.68 2.28Q31.16 1.20 34.24 1.20L34.24 1.20Q36.76 1.20 38.86 1.40Q40.96 1.60 42.84 1.60L42.84 1.60Q44.44 1.60 45.60 1.20Q46.76 0.80 47.60 0L47.60 0ZM45.32 15.28L45.32 15.28Q45.32 12.76 44.72 10.78Q44.12 8.80 43.34 7.34Q42.56 5.88 41.80 4.98Q41.04 4.08 40.72 3.76L40.72 3.76Q39.24 3.68 37.62 3.54Q36 3.40 34.20 3.40L34.20 3.40Q31.72 3.40 29.68 4.26Q27.64 5.12 26.20 6.70Q24.76 8.28 23.96 10.46Q23.16 12.64 23.16 15.28L23.16 15.28Q23.16 17.92 23.96 20.10Q24.76 22.28 26.22 23.84Q27.68 25.40 29.72 26.28Q31.76 27.16 34.24 27.16L34.24 27.16Q36.72 27.16 38.76 26.30Q40.80 25.44 42.26 23.86Q43.72 22.28 44.52 20.10Q45.32 17.92 45.32 15.28ZM72.96 28.96L70.32 28.96L67.52 21.84Q67.08 20.72 66.52 19.84Q65.96 18.96 65.18 18.34Q64.40 17.72 63.36 17.40Q62.32 17.08 60.96 17.08L60.96 17.08L57.12 17.08L57.12 28.96L54.68 28.96L54.68 3.72Q53.40 3.52 52.26 3Q51.12 2.48 50.32 1.36L50.32 1.36L51.64 0Q52.48 0.80 53.64 1.20Q54.80 1.60 56.40 1.60L56.40 1.60Q57.32 1.60 57.96 1.54Q58.60 1.48 59.24 1.40Q59.88 1.32 60.66 1.26Q61.44 1.20 62.72 1.20L62.72 1.20Q64.52 1.20 66 1.80Q67.48 2.40 68.54 3.46Q69.60 4.52 70.20 5.96Q70.80 7.40 70.80 9.12L70.80 9.12Q70.80 11.88 69.44 13.66Q68.08 15.44 65.76 16.16L65.76 16.16Q67.08 16.76 67.90 17.80Q68.72 18.84 69.36 20.32L69.36 20.32L72.96 28.96ZM62.60 3.40L62.60 3.40Q61.32 3.40 60.56 3.46Q59.80 3.52 59.26 3.58Q58.72 3.64 58.24 3.72Q57.76 3.80 57.12 3.80L57.12 3.80L57.12 14.88L62.68 14.88Q63.92 14.88 64.98 14.48Q66.04 14.08 66.80 13.34Q67.56 12.60 67.98 11.52Q68.40 10.44 68.40 9.12L68.40 9.12Q68.40 6.48 66.82 4.94Q65.24 3.40 62.60 3.40ZM96.28 26.68L96.28 28.96L77.56 28.96L77.56 1.60L95.48 1.60L95.48 3.88L80 3.88L80 13.36L92.68 13.36L92.68 15.64L80 15.64L80 26.68L96.28 26.68ZM102.32 15.28L99.88 15.28Q99.88 12.28 100.84 9.72Q101.80 7.16 103.52 5.26Q105.24 3.36 107.66 2.28Q110.08 1.20 113 1.20L113 1.20Q117.32 1.20 119.48 2.72Q121.64 4.24 121.64 6.76L121.64 6.76Q121.64 7.88 121.16 8.82Q120.68 9.76 119.62 10.46Q118.56 11.16 116.92 11.54Q115.28 11.92 113 11.92L113 11.92L102.68 11.92Q102.32 13.48 102.32 15.28L102.32 15.28ZM113 3.40L113 3.40Q109.60 3.40 107.10 5.12Q104.60 6.84 103.32 9.84L103.32 9.84L113 9.84Q114.80 9.84 115.98 9.64Q117.16 9.44 117.86 9.04Q118.56 8.64 118.84 8.06Q119.12 7.48 119.12 6.76L119.12 6.76Q119.12 5.08 117.56 4.24Q116 3.40 113 3.40ZM111.40 29.36L111.40 29.36Q108.44 29.36 106.26 28.28Q104.08 27.20 102.66 25.30Q101.24 23.40 100.56 20.82Q99.88 18.24 99.88 15.28L99.88 15.28L102.32 15.28Q102.32 17.92 102.90 20.10Q103.48 22.28 104.62 23.84Q105.76 25.40 107.46 26.28Q109.16 27.16 111.40 27.16L111.40 27.16Q112.64 27.16 113.98 26.82Q115.32 26.48 116.54 26Q117.76 25.52 118.76 24.98Q119.76 24.44 120.40 24.04L120.40 24.04L121.44 25.84Q120.84 26.32 119.82 26.94Q118.80 27.56 117.48 28.10Q116.16 28.64 114.62 29Q113.08 29.36 111.40 29.36ZM135.52 0.84L136.28 0.84L148.24 28.96L145.68 28.96L141.80 19.88L130 19.88L126.20 28.96L123.64 28.96L135.52 0.84ZM134.92 8.28L130.96 17.60L140.84 17.60L136.88 8.28Q136.56 7.52 136.30 6.66Q136.04 5.80 135.88 5.16L135.88 5.16Q135.72 5.84 135.48 6.70Q135.24 7.56 134.92 8.28L134.92 8.28ZM158.88 3.52L158.88 3.52Q156.48 3.52 155.20 4.66Q153.92 5.80 153.92 7.48L153.92 7.48Q153.92 8.96 154.48 9.96Q155.04 10.96 155.96 11.64Q156.88 12.32 158.06 12.80Q159.24 13.28 160.52 13.72L160.52 13.72Q161.88 14.20 163.28 14.86Q164.68 15.52 165.80 16.50Q166.92 17.48 167.62 18.86Q168.32 20.24 168.32 22.20L168.32 22.20Q168.32 24.16 167.52 25.52Q166.72 26.88 165.42 27.74Q164.12 28.60 162.44 28.98Q160.76 29.36 159 29.36L159 29.36Q156.40 29.36 154.06 28.50Q151.72 27.64 150.04 26.40L150.04 26.40L151.36 24.48Q152.12 24.96 153.00 25.42Q153.88 25.88 154.90 26.28Q155.92 26.68 157.04 26.92Q158.16 27.16 159.44 27.16L159.44 27.16Q160.72 27.16 161.88 26.90Q163.04 26.64 163.92 26.06Q164.80 25.48 165.32 24.54Q165.84 23.60 165.84 22.20L165.84 22.20Q165.84 20.76 165.28 19.74Q164.72 18.72 163.80 17.98Q162.88 17.24 161.68 16.70Q160.48 16.16 159.20 15.68L159.20 15.68Q157.84 15.16 156.46 14.58Q155.08 14 153.96 13.10Q152.84 12.20 152.14 10.86Q151.44 9.52 151.44 7.48L151.44 7.48Q151.44 6.24 151.98 5.12Q152.52 4 153.54 3.16Q154.56 2.32 156.02 1.82Q157.48 1.32 159.28 1.32L159.28 1.32Q160.48 1.32 161.40 1.36Q162.32 1.40 162.88 1.40L162.88 1.40Q164.24 1.40 165.02 1.10Q165.80 0.80 166.64 0L166.64 0L167.96 1.36Q167.40 2.12 166.84 2.56Q166.28 3 165.66 3.24Q165.04 3.48 164.36 3.54Q163.68 3.60 162.88 3.60L162.88 3.60Q162.20 3.60 161.12 3.56Q160.04 3.52 158.88 3.52ZM192.08 1.60L192.08 3.88L182.52 3.88L182.52 28.96L180.08 28.96L180.08 3.88L170.52 3.88L170.52 1.60L192.08 1.60ZM202.92 3.52L202.92 3.52Q200.52 3.52 199.24 4.66Q197.96 5.80 197.96 7.48L197.96 7.48Q197.96 8.96 198.52 9.96Q199.08 10.96 200 11.64Q200.92 12.32 202.10 12.80Q203.28 13.28 204.56 13.72L204.56 13.72Q205.92 14.20 207.32 14.86Q208.72 15.52 209.84 16.50Q210.96 17.48 211.66 18.86Q212.36 20.24 212.36 22.20L212.36 22.20Q212.36 24.16 211.56 25.52Q210.76 26.88 209.46 27.74Q208.16 28.60 206.48 28.98Q204.80 29.36 203.04 29.36L203.04 29.36Q200.44 29.36 198.10 28.50Q195.76 27.64 194.08 26.40L194.08 26.40L195.40 24.48Q196.16 24.96 197.04 25.42Q197.92 25.88 198.94 26.28Q199.96 26.68 201.08 26.92Q202.20 27.16 203.48 27.16L203.48 27.16Q204.76 27.16 205.92 26.90Q207.08 26.64 207.96 26.06Q208.84 25.48 209.36 24.54Q209.88 23.60 209.88 22.20L209.88 22.20Q209.88 20.76 209.32 19.74Q208.76 18.72 207.84 17.98Q206.92 17.24 205.72 16.70Q204.52 16.16 203.24 15.68L203.24 15.68Q201.88 15.16 200.50 14.58Q199.12 14 198 13.10Q196.88 12.20 196.18 10.86Q195.48 9.52 195.48 7.48L195.48 7.48Q195.48 6.24 196.02 5.12Q196.56 4 197.58 3.16Q198.60 2.32 200.06 1.82Q201.52 1.32 203.32 1.32L203.32 1.32Q204.52 1.32 205.44 1.36Q206.36 1.40 206.92 1.40L206.92 1.40Q208.28 1.40 209.06 1.10Q209.84 0.80 210.68 0L210.68 0L212 1.36Q211.44 2.12 210.88 2.56Q210.32 3 209.70 3.24Q209.08 3.48 208.40 3.54Q207.72 3.60 206.92 3.60L206.92 3.60Q206.24 3.60 205.16 3.56Q204.08 3.52 202.92 3.52ZM217.96 27.16L217.96 27.16Q217.96 26.24 218.62 25.56Q219.28 24.88 220.20 24.88L220.20 24.88Q221.16 24.88 221.82 25.56Q222.48 26.24 222.48 27.16L222.48 27.16Q222.48 28.08 221.82 28.74Q221.16 29.40 220.20 29.40L220.20 29.40Q219.28 29.40 218.62 28.74Q217.96 28.08 217.96 27.16ZM229.72 15.28L227.28 15.28Q227.28 12.28 228.24 9.72Q229.20 7.16 230.92 5.26Q232.64 3.36 235.06 2.28Q237.48 1.20 240.40 1.20L240.40 1.20Q244.72 1.20 246.88 2.72Q249.04 4.24 249.04 6.76L249.04 6.76Q249.04 7.88 248.56 8.82Q248.08 9.76 247.02 10.46Q245.96 11.16 244.32 11.54Q242.68 11.92 240.40 11.92L240.40 11.92L230.08 11.92Q229.72 13.48 229.72 15.28L229.72 15.28ZM240.40 3.40L240.40 3.40Q237.00 3.40 234.50 5.12Q232.00 6.84 230.72 9.84L230.72 9.84L240.40 9.84Q242.20 9.84 243.38 9.64Q244.56 9.44 245.26 9.04Q245.96 8.64 246.24 8.06Q246.52 7.48 246.52 6.76L246.52 6.76Q246.52 5.08 244.96 4.24Q243.40 3.40 240.40 3.40ZM238.80 29.36L238.80 29.36Q235.84 29.36 233.66 28.28Q231.48 27.20 230.06 25.30Q228.64 23.40 227.96 20.82Q227.28 18.24 227.28 15.28L227.28 15.28L229.72 15.28Q229.72 17.92 230.30 20.10Q230.88 22.28 232.02 23.84Q233.16 25.40 234.86 26.28Q236.56 27.16 238.80 27.16L238.80 27.16Q240.04 27.16 241.38 26.82Q242.72 26.48 243.94 26Q245.16 25.52 246.16 24.98Q247.16 24.44 247.80 24.04L247.80 24.04L248.84 25.84Q248.24 26.32 247.22 26.94Q246.20 27.56 244.88 28.10Q243.56 28.64 242.02 29Q240.48 29.36 238.80 29.36ZM279.92 0L281.24 1.36Q280.32 2.64 278.92 3.18Q277.52 3.72 276.08 3.80L276.08 3.80Q276.68 4.60 277.38 5.74Q278.08 6.88 278.68 8.32Q279.28 9.76 279.66 11.50Q280.04 13.24 280.04 15.28L280.04 15.28Q280.04 18.28 279.08 20.86Q278.12 23.44 276.34 25.32Q274.56 27.20 272.08 28.28Q269.60 29.36 266.56 29.36L266.56 29.36Q263.48 29.36 261 28.28Q258.52 27.20 256.74 25.30Q254.96 23.40 254.00 20.84Q253.04 18.28 253.04 15.28L253.04 15.28Q253.04 12.28 254.00 9.70Q254.96 7.12 256.74 5.24Q258.52 3.36 261 2.28Q263.48 1.20 266.56 1.20L266.56 1.20Q269.08 1.20 271.18 1.40Q273.28 1.60 275.16 1.60L275.16 1.60Q276.76 1.60 277.92 1.20Q279.08 0.80 279.92 0L279.92 0ZM277.64 15.28L277.64 15.28Q277.64 12.76 277.04 10.78Q276.44 8.80 275.66 7.34Q274.88 5.88 274.12 4.98Q273.36 4.08 273.04 3.76L273.04 3.76Q271.56 3.68 269.94 3.54Q268.32 3.40 266.52 3.40L266.52 3.40Q264.04 3.40 262 4.26Q259.96 5.12 258.52 6.70Q257.08 8.28 256.28 10.46Q255.48 12.64 255.48 15.28L255.48 15.28Q255.48 17.92 256.28 20.10Q257.08 22.28 258.54 23.84Q260 25.40 262.04 26.28Q264.08 27.16 266.56 27.16L266.56 27.16Q269.04 27.16 271.08 26.30Q273.12 25.44 274.58 23.86Q276.04 22.28 276.84 20.10Q277.64 17.92 277.64 15.28ZM303.84 18.96L303.24 20.76Q301.80 20.48 300.60 19.90Q299.40 19.32 298.40 18.62Q297.40 17.92 296.60 17.14Q295.80 16.36 295.20 15.64L295.20 15.64L291.28 10.80Q290.60 10 289.82 8.88Q289.04 7.76 288.36 6.68L288.36 6.68Q288.48 7.68 288.58 8.78Q288.68 9.88 288.68 10.80L288.68 10.80L288.68 28.96L286.24 28.96L286.24 1.24L287 1.24L297.64 14.80Q297.92 15.24 298.48 15.76L298.48 15.76L310.44 1.24L311.20 1.24L311.20 28.96L308.76 28.96L308.76 10.80Q308.76 9.80 308.86 8.54Q308.96 7.28 309.08 6.24L309.08 6.24Q308.24 7.40 307.32 8.66Q306.40 9.92 305.64 10.80L305.64 10.80L300.20 17.24Q301 17.80 301.90 18.26Q302.80 18.72 303.84 18.96L303.84 18.96Z" transform="translate(12 156.475) scale(1)"></path></svg>